<svg xmlns="http://www.w3.org/2000/svg"  version="1.1" xlink="http://www.w3.org/1999/xlink" xmlns:svgjs="http://svgjs.com/svgjs" width="350px" height="100%" preserveAspectRatio="xMidYMid meet" viewBox="0.000009908305401040707 -6.945094810362207e-7 300.0000305175781 143.8856964111328" overflow="visible"><defs id="SvgjsDefs34323"></defs><g id="SvgjsG34324" transform="scale(0.6493506493506493)" opacity="1"><g id="SvgjsG34325" class="5Euh8-3Fe" transform="translate(138.70400138529988, -5.776759797183975) scale(1.846178437275221)" light-content="false" non-strokable="false" fill="#185ef7"><path d="M21.195 50.758a34.431 34.431 0 0 1 17.738-13.824 16.85 16.85 0 0 1-5.73-14.34c.042-.445.097-.875.171-1.293a2.05 2.05 0 0 1-.105-.66v-7.77l-3.824-1.242c-.88-.285-.871-1.531 0-1.816l20.39-6.637a.95.95 0 0 1 .59 0l20.243 6.586h3.398c.527 0 .957.43.957.957v4.934h1.086c.527 0 .957.43.957.957v6.406a.957.957 0 0 1-1.664.644l-1.336-1.27-1.383 1.317c-.61.578-1.613.14-1.613-.691h-.004V16.61c0-.528.43-.957.957-.957h1.086v-3.977h-2.445l-3.672 1.195v7.77c0 .394-.106.762-.301 1.082-.031.148 1.055 4.98-1.746 10.312a16.932 16.932 0 0 1-3.883 4.902A34.433 34.433 0 0 1 78.8 50.761a64.21 64.21 0 0 1 6.652 1.07c1.13.246 2.078 1.082 2.078 2.239v38.105c0 1.343-1.472 2.129-2.793 1.847a63.226 63.226 0 0 0-17.977-1.136c-5.828.472-11 1.773-16.359 3.894a.963.963 0 0 1-.816 0c-4.922-2.125-10.531-3.422-16.36-3.894a63.23 63.23 0 0 0-17.976 1.136c-1.324.278-2.793-.507-2.793-1.847V54.07c0-1.16.95-1.996 2.078-2.239a63.391 63.391 0 0 1 6.66-1.074zm53.961-33.195h-2.172v3.223l.426-.407a.957.957 0 0 1 1.316 0l.426.407v-3.223zm-25.023-5.89c-1.258 0-1.258-1.915 0-1.915H64.5L50.133 5.083 32.828 10.71l17.305 5.633 14.363-4.676zM35.18 13.488v7.148l.105.153 13.234 4.914a4.494 4.494 0 0 0 3.223 0l13.301-4.957.04-.114v-7.148l-14.657 4.773a.95.95 0 0 1-.59 0zm-.078 9.27c-.496 5.308 1.793 10.382 6.043 13.507a34.545 34.545 0 0 1 17.71 0c4.22-3.101 6.509-8.129 6.048-13.41l-12.496 4.64c-1.535.571-3.02.571-4.551 0zM80.286 83.71c-7.758-1.597-16.29-1.004-23.895 1.34-1.2.371-.64 2.192.558 1.824 7.301-2.246 15.516-2.82 22.953-1.293 1.231.25 1.614-1.62.383-1.87zm-.012-8.43c-7.77-1.503-16.3-.8-23.883 1.633-1.195.383-.613 2.2.582 1.817 7.274-2.336 15.484-3.008 22.941-1.574 1.235.238 1.594-1.641.36-1.875zm-.043-8.417c-7.805-1.301-16.316-.38-23.824 2.246-1.187.414-.555 2.215.63 1.8 7.214-2.523 15.386-3.414 22.882-2.164 1.238.207 1.55-1.675.313-1.882zm.016-8.141c-7.79-1.379-16.316-.55-23.852 2.004-1.192.402-.578 2.21.613 1.809 7.246-2.457 15.418-3.247 22.91-1.93 1.238.215 1.57-1.668.328-1.883zM20.099 85.621c7.43-1.559 15.652-1.004 22.957 1.215 1.199.363 1.754-1.457.555-1.824-7.625-2.317-16.145-2.88-23.898-1.258-1.231.254-.844 2.12.386 1.867zm-.012-8.465c7.453-1.441 15.672-.762 22.941 1.574 1.195.383 1.777-1.433.582-1.816-7.59-2.437-16.105-3.129-23.883-1.633-1.234.238-.875 2.11.36 1.875zm0-8.41c7.5-1.25 15.668-.36 22.883 2.164 1.184.414 1.816-1.387.629-1.8-7.508-2.626-16.023-3.548-23.824-2.247-1.242.207-.93 2.09.313 1.883zm-.004-8.14c7.469-1.325 15.684-.52 22.91 1.93 1.192.401 1.805-1.407.613-1.81-7.558-2.558-16.039-3.378-23.852-2.003-1.242.214-.91 2.097.329 1.882zM76.35 50.538c-9.578-13.324-27.62-17.434-" fill-rule="evenodd"></path></g></g></svg>