<svg xmlns="http://www.w3.org/2000/svg"  version="1.1" xlink="http://www.w3.org/1999/xlink" xmlns:svgjs="http://svgjs.com/svgjs" width="150px" height="100%" preserveAspectRatio="xMidYMid meet" viewBox="0.000009908305401040707 -6.945094810362207e-7 300.0000305175781 143.8856964111328" overflow="visible"><defs id="SvgjsDefs34323"></defs><g id="SvgjsG34324" transform="scale(0.6493506493506493)" opacity="1"><g id="SvgjsG34325" class="5Euh8-3Fe" transform="translate(138.70400138529988, -5.776759797183975) scale(1.846178437275221)" light-content="false" non-strokable="false" fill="#185ef7"><path d="M21.195 50.758a34.431 34.431 0 0 1 17.738-13.824 16.85 16.85 0 0 1-5.73-14.34c.042-.445.097-.875.171-1.293a2.05 2.05 0 0 1-.105-.66v-7.77l-3.824-1.242c-.88-.285-.871-1.531 0-1.816l20.39-6.637a.95.95 0 0 1 .59 0l20.243 6.586h3.398c.527 0 .957.43.957.957v4.934h1.086c.527 0 .957.43.957.957v6.406a.957.957 0 0 1-1.664.644l-1.336-1.27-1.383 1.317c-.61.578-1.613.14-1.613-.691h-.004V16.61c0-.528.43-.957.957-.957h1.086v-3.977h-2.445l-3.672 1.195v7.77c0 .394-.106.762-.301 1.082-.031.148 1.055 4.98-1.746 10.312a16.932 16.932 0 0 1-3.883 4.902A34.433 34.433 0 0 1 78.8 50.761a64.21 64.21 0 0 1 6.652 1.07c1.13.246 2.078 1.082 2.078 2.239v38.105c0 1.343-1.472 2.129-2.793 1.847a63.226 63.226 0 0 0-17.977-1.136c-5.828.472-11.438 1.773-16.359 3.894a.963.963 0 0 1-.816 0c-4.922-2.125-10.531-3.422-16.36-3.894a63.23 63.23 0 0 0-17.976 1.136c-1.324.278-2.793-.507-2.793-1.847V54.07c0-1.16.95-1.996 2.078-2.239a63.391 63.391 0 0 1 6.66-1.074zm53.961-33.195h-2.172v3.223l.426-.407a.957.957 0 0 1 1.316 0l.426.407v-3.223zm-25.023-5.89c-1.258 0-1.258-1.915 0-1.915H64.5L50.133 5.083 32.828 10.71l17.305 5.633 14.363-4.676zM35.18 13.488v7.148l.105.153 13.234 4.914a4.494 4.494 0 0 0 3.223 0l13.301-4.957.04-.114v-7.148l-14.657 4.773a.95.95 0 0 1-.59 0zm-.078 9.27c-.496 5.308 1.793 10.382 6.043 13.507a34.545 34.545 0 0 1 17.71 0c4.22-3.101 6.509-8.129 6.048-13.41l-12.496 4.64c-1.535.571-3.02.571-4.551 0zM80.286 83.71c-7.758-1.597-16.29-1.004-23.895 1.34-1.2.371-.64 2.192.558 1.824 7.301-2.246 15.516-2.82 22.953-1.293 1.231.25 1.614-1.62.383-1.87zm-.012-8.43c-7.77-1.503-16.3-.8-23.883 1.633-1.195.383-.613 2.2.582 1.817 7.274-2.336 15.484-3.008 22.941-1.574 1.235.238 1.594-1.641.36-1.875zm-.043-8.417c-7.805-1.301-16.316-.38-23.824 2.246-1.187.414-.555 2.215.63 1.8 7.214-2.523 15.386-3.414 22.882-2.164 1.238.207 1.55-1.675.313-1.882zm.016-8.141c-7.79-1.379-16.316-.55-23.852 2.004-1.192.402-.578 2.21.613 1.809 7.246-2.457 15.418-3.247 22.91-1.93 1.238.215 1.57-1.668.328-1.883zM20.099 85.621c7.43-1.559 15.652-1.004 22.957 1.215 1.199.363 1.754-1.457.555-1.824-7.625-2.317-16.145-2.88-23.898-1.258-1.231.254-.844 2.12.386 1.867zm-.012-8.465c7.453-1.441 15.672-.762 22.941 1.574 1.195.383 1.777-1.433.582-1.816-7.59-2.437-16.105-3.129-23.883-1.633-1.234.238-.875 2.11.36 1.875zm0-8.41c7.5-1.25 15.668-.36 22.883 2.164 1.184.414 1.816-1.387.629-1.8-7.508-2.626-16.023-3.548-23.824-2.247-1.242.207-.93 2.09.313 1.883zm-.004-8.14c7.469-1.325 15.684-.52 22.91 1.93 1.192.401 1.805-1.407.613-1.81-7.558-2.558-16.039-3.378-23.852-2.003-1.242.214-.91 2.097.329 1.882zM76.35 50.538c-9.578-13.324-27.62-17.434-41.996-9.5a32.57 32.57 0 0 0-10.699 9.5c8.926-.62 18.312.567 26.348 3.954 8.035-3.387 17.418-4.575 26.348-3.954zm-9.418 1.942c-5.676.445-11.145 1.672-15.977 3.68l.004 38.336c10.465-4.133 23.055-4.684 34.18-2.34.18.039.336.023.492-.067l-.004-38.02c0-.18-.367-.328-.57-.37a63.152 63.152 0 0 0-18.125-1.22zm-33.547 38.5c5.52.449 10.867 1.62 15.668 3.52l-.004-38.34c-10.328-4.29-23.043-4.856-34.105-2.462-.199.043-.57.192-.57.371v38.02c.152.09.312.102.492.067a65.223 65.223 0 0 1 18.52-1.176z" fill-rule="evenodd"></path></g><g id="SvgjsG34326" class="text" transform="translate(230.56, 220.783946955992) scale(1)" light-content="false" fill="#4a4a4a"><path d="M-209.06 -25.64C-210.93 -27.01 -213.55 -27.69 -216.92 -27.69L-226.7 -27.69L-230.56 0L-222.53 0L-221.33 -8.63L-218.63 -8.63C-215.79 -8.63 -213.44 -9.18 -211.58 -10.28C-209.73 -11.39 -208.37 -12.78 -207.53 -14.46C-206.68 -16.15 -206.25 -17.89 -206.25 -19.69C-206.25 -22.29 -207.19 -24.28 -209.06 -25.64ZM-215.48 -15.91C-216.12 -14.91 -217.19 -14.4 -218.71 -14.4L-220.54 -14.4L-219.46 -22L-217.75 -22C-215.6 -22 -214.53 -21.07 -214.53 -19.22C-214.53 -18.02 -214.85 -16.92 -215.48 -15.91Z M-194.79 -27.69L-202.83 -27.69L-206.69 0L-189.22 0L-187.55 -6.29L-197.78 -6.29Z M-172.08 0L-163.56 0L-167.58 -27.69L-177.21 -27.69L-188.99 0L-180.59 0L-178.84 -5.37L-172.35 -5.37ZM-177.01 -11.1L-173.31 -22.56L-172.67 -11.1Z M-139.05 -24.91C-141.07 -27.29 -143.96 -28.49 -147.73 -28.49C-151.12 -28.49 -153.92 -27.59 -156.12 -25.8C-158.32 -24.01 -159.93 -21.76 -160.94 -19.06C-161.94 -16.35 -162.45 -13.58 -162.45 -10.74C-162.45 -8.28 -161.99 -6.18 -161.08 -4.46C-160.16 -2.73 -158.88 -1.43 -157.24 -0.54C-155.59 0.35 -153.67 0.8 -151.47 0.8C-149.53 0.8 -147.75 0.44 -146.12 -0.26C-144.48 -0.96 -143.03 -1.88 -141.76 -3.02L-144.78 -7.68C-145.79 -6.94 -146.7 -6.37 -147.51 -5.97C-148.32 -5.57 -149.16 -5.37 -150.03 -5.37C-152.77 -5.37 -154.13 -7.21 -154.13 -10.9C-154.13 -12.52 -153.93 -14.23 -153.52 -16.03C-153.1 -17.84 -152.42 -19.38 -151.45 -20.67C-150.48 -21.96 -149.21 -22.6 -147.65 -22.6C-146.8 -22.6 -146.03 -22.45 -145.34 -22.14C-144.65 -21.84 -143.97 -21.39 -143.31 -20.81Z M-118.76 -27.69L-136.63 -27.69L-140.49 0L-122.82 0L-122.02 -5.73L-131.65 -5.73L-130.86 -11.3L-122.98 -11.3L-122.26 -16.83L-130.1 -16.83L-129.39 -22L-120.39 -22Z M-91.63 0L-89.72 -27.69L-99.9 -27.69L-105.31 -8.99L-105.83 -27.69L-115.54 -27.69L-121.35 0L-113.43 0L-111.88 -9.83C-111.56 -11.71 -111.33 -13.52 -111.18 -15.26C-111.04 -17 -110.95 -19.2 -110.92 -21.88L-110.01 -2.79L-102.29 -2.79L-96.48 -21.96C-97.36 -17.37 -97.99 -13.34 -98.39 -9.87L-99.55 0Z M-67.56 -27.69L-85.42 -27.69L-89.28 0L-71.62 0L-70.82 -5.73L-80.45 -5.73L-79.65 -11.3L-71.77 -11.3L-71.06 -16.83L-78.9 -16.83L-78.18 -22L-69.19 -22Z M-46.99 0L-43.13 -27.69L-50.13 -27.69L-51.32 -19.26C-51.7 -16.55 -51.88 -14.12 -51.88 -11.98C-51.88 -10.91 -51.8 -9.16 -51.64 -6.72L-55.18 -27.69L-65.13 -27.69L-68.99 0L-61.99 0L-60.83 -8.16C-60.46 -10.97 -60.28 -13.54 -60.28 -15.87C-60.28 -16.91 -60.33 -18.25 -60.44 -19.89L-60.48 -20.97L-57.09 0Z M-19.57 -27.69L-41.22 -27.69L-42.05 -21.56L-35.45 -21.56L-38.47 0L-30.44 0L-27.41 -21.56L-21.25 -21.56Z M7.82 -25.64C5.95 -27.01 3.33 -27.69 -0.04 -27.69L-9.83 -27.69L-13.69 0L-5.65 0L-4.46 -8.63L-1.75 -8.63C1.09 -8.63 3.43 -9.18 5.29 -10.28C7.15 -11.39 8.5 -12.78 9.35 -14.46C10.2 -16.15 10.62 -17.89 10.62 -19.69C10.62 -22.29 9.69 -24.28 7.82 -25.64ZM1.39 -15.91C0.76 -14.91 -0.32 -14.4 -1.83 -14.4L-3.66 -14.4L-2.59 -22L-0.88 -22C1.27 -22 2.35 -21.07 2.35 -19.22C2.35 -18.02 2.03 -16.92 1.39 -15.91Z M33.32 -15.06C34.13 -16.48 34.53 -18.14 34.53 -20.05C34.53 -22.39 33.63 -24.24 31.83 -25.62C30.03 -27 27.43 -27.69 24.03 -27.69L14.04 -27.69L10.19 0L18.22 0L19.57 -9.87L21.21 -9.87L24.87 0L33.62 0L28.65 -11.18C30.95 -12.35 32.51 -13.64 33.32 -15.06ZM20.37 -15.36L21.29 -22.08L23.04 -22.08C25.18 -22.08 26.26 -21.23 26.26 -19.54C26.26 -18.39 25.95 -17.41 25.32 -16.59C24.7 -15.77 23.74 -15.36 22.44 -15.36Z M56.26 -27.69L38.39 -27.69L34.53 0L52.2 0L53 -5.73L43.37 -5.73L44.16 -11.3L52.04 -11.3L52.76 -16.83L44.92 -16.83L45.64 -22L54.63 -22Z M76.33 -25.64C74.46 -27.01 71.84 -27.69 68.47 -27.69L58.68 -27.69L54.83 0L62.86 0L64.06 -8.63L66.76 -8.63C69.6 -8.63 71.95 -9.18 73.8 -10.28C75.66 -11.39 77.01 -12.78 77.86 -14.46C78.71 -16.15 79.14 -17.89 79.14 -19.69C79.14 -22.29 78.2 -24.28 76.33 -25.64ZM69.9 -15.91C69.27 -14.91 68.19 -14.4 66.68 -14.4L64.85 -14.4L65.93 -22L67.64 -22C69.79 -22 70.86 -21.07 70.86 -19.22C70.86 -18.02 70.54 -16.92 69.9 -15.91Z M90.47 0L98.99 0L94.97 -27.69L85.34 -27.69L73.57 0L81.96 0L83.71 -5.37L90.2 -5.37ZM85.54 -11.1L89.24 -22.56L89.88 -11.1Z M122.88 -15.06C123.69 -16.48 124.09 -18.14 124.09 -20.05C124.09 -22.39 123.19 -24.24 121.39 -25.62C119.58 -27 116.99 -27.69 113.59 -27.69L103.6 -27.69L99.74 0L107.78 0L109.13 -9.87L110.77 -9.87L114.43 0L123.18 0L118.21 -11.18C120.51 -12.35 122.07 -13.64 122.88 -15.06ZM109.93 -15.36L110.84 -22.08L112.6 -22.08C114.74 -22.08 115.82 -21.23 115.82 -19.54C115.82 -18.39 115.51 -17.41 114.88 -16.59C114.26 -15.77 113.3 -15.36 112 -15.36Z M138.26 0L146.77 0L142.75 -27.69L133.13 -27.69L121.35 0L129.74 0L131.49 -5.37L137.98 -5.37ZM133.32 -11.1L137.02 -22.56L137.66 -11.1Z M169.49 -27.69L147.85 -27.69L147.01 -21.56L153.62 -21.56L150.59 0L158.63 0L161.65 -21.56L167.82 -21.56Z M179 -27.69L170.96 -27.69L167.1 0L175.14 0Z M202.43 -25.48C200.55 -27.49 197.83 -28.49 194.28 -28.49C190.72 -28.49 187.83 -27.58 185.58 -25.76C183.34 -23.94 181.74 -21.68 180.79 -18.98C179.83 -16.27 179.36 -13.5 179.36 -10.66C179.36 -7.06 180.31 -4.24 182.2 -2.23C184.1 -0.21 186.81 0.8 190.34 0.8C193.92 0.8 196.82 -0.12 199.05 -1.95C201.28 -3.78 202.87 -6.05 203.83 -8.75C204.78 -11.46 205.26 -14.23 205.26 -17.07C205.26 -20.68 204.32 -23.48 202.43 -25.48ZM189.96 -20.49C190.85 -21.95 192.08 -22.68 193.64 -22.68C194.78 -22.68 195.62 -22.3 196.17 -21.54C196.71 -20.79 196.98 -19.54 196.98 -17.78C196.98 -16.03 196.82 -14.19 196.49 -12.25C196.15 -10.32 195.54 -8.63 194.66 -7.18C193.77 -5.74 192.54 -5.01 190.97 -5.01C189.83 -5.01 188.99 -5.4 188.45 -6.17C187.9 -6.94 187.63 -8.21 187.63 -9.99C187.63 -11.68 187.8 -13.49 188.13 -15.42C188.46 -17.34 189.07 -19.03 189.96 -20.49Z M227.58 0L231.44 -27.69L224.44 -27.69L223.24 -19.26C222.87 -16.55 222.68 -14.12 222.68 -11.98C222.68 -10.91 222.76 -9.16 222.92 -6.72L219.38 -27.69L209.44 -27.69L205.58 0L212.58 0L213.73 -8.16C214.1 -10.97 214.29 -13.54 214.29 -15.87C214.29 -16.91 214.24 -18.25 214.13 -19.89L214.09 -20.97L217.47 0Z"></path></g></g></svg>